<mxfile host="Electron" modified="2023-12-18T02:39:23.942Z" agent="Mozilla/5.0 (Windows NT 10.0; Win64; x64) AppleWebKit/537.36 (KHTML, like Gecko) draw.io/22.1.2 Chrome/114.0.5735.289 Electron/25.9.4 Safari/537.36" etag="xAnnlgyz-NaAThDKxxe5" version="22.1.2" type="device">
  <diagram name="Page-1" id="yDm_fk6TP922wjxOswY0">
    <mxGraphModel dx="406" dy="238" grid="1" gridSize="10" guides="1" tooltips="1" connect="1" arrows="1" fold="1" page="1" pageScale="1" pageWidth="850" pageHeight="1100" math="0" shadow="0">
      <root>
        <mxCell id="0" />
        <mxCell id="1" parent="0" />
        <mxCell id="A4y-H2rQIWdmtSI4aFEW-2" value="" style="rounded=0;whiteSpace=wrap;html=1;" vertex="1" parent="1">
          <mxGeometry x="330" y="150" width="390" height="190" as="geometry" />
        </mxCell>
        <mxCell id="A4y-H2rQIWdmtSI4aFEW-3" value="filter( f," style="text;html=1;strokeColor=none;fillColor=none;align=right;verticalAlign=middle;whiteSpace=wrap;rounded=0;" vertex="1" parent="1">
          <mxGeometry x="340" y="230" width="40" height="30" as="geometry" />
        </mxCell>
        <mxCell id="A4y-H2rQIWdmtSI4aFEW-4" value="" style="rounded=0;whiteSpace=wrap;html=1;fillColor=#FFE6CC;" vertex="1" parent="1">
          <mxGeometry x="384" y="205" width="30" height="20" as="geometry" />
        </mxCell>
        <mxCell id="A4y-H2rQIWdmtSI4aFEW-5" value="" style="rounded=0;whiteSpace=wrap;html=1;fillColor=#FFB366;" vertex="1" parent="1">
          <mxGeometry x="384" y="225" width="30" height="20" as="geometry" />
        </mxCell>
        <mxCell id="A4y-H2rQIWdmtSI4aFEW-6" value="" style="rounded=0;whiteSpace=wrap;html=1;fillColor=#FF8000;" vertex="1" parent="1">
          <mxGeometry x="384" y="245" width="30" height="20" as="geometry" />
        </mxCell>
        <mxCell id="A4y-H2rQIWdmtSI4aFEW-7" value="" style="rounded=0;whiteSpace=wrap;html=1;fillColor=#994C00;" vertex="1" parent="1">
          <mxGeometry x="384" y="265" width="30" height="20" as="geometry" />
        </mxCell>
        <mxCell id="A4y-H2rQIWdmtSI4aFEW-8" value=")" style="text;html=1;strokeColor=none;fillColor=none;align=left;verticalAlign=middle;whiteSpace=wrap;rounded=0;" vertex="1" parent="1">
          <mxGeometry x="420" y="230" width="20" height="30" as="geometry" />
        </mxCell>
        <mxCell id="A4y-H2rQIWdmtSI4aFEW-9" value="" style="rounded=0;whiteSpace=wrap;html=1;" vertex="1" parent="1">
          <mxGeometry x="505" y="165" width="105" height="40" as="geometry" />
        </mxCell>
        <mxCell id="A4y-H2rQIWdmtSI4aFEW-10" value="" style="rounded=0;whiteSpace=wrap;html=1;fillColor=#FFE6CC;" vertex="1" parent="1">
          <mxGeometry x="520" y="175" width="30" height="20" as="geometry" />
        </mxCell>
        <mxCell id="A4y-H2rQIWdmtSI4aFEW-11" value="" style="shape=flexArrow;endArrow=classic;html=1;rounded=0;exitX=0;exitY=0.5;exitDx=0;exitDy=0;" edge="1" parent="1">
          <mxGeometry width="50" height="50" relative="1" as="geometry">
            <mxPoint x="430" y="244.5" as="sourcePoint" />
            <mxPoint x="480" y="244.5" as="targetPoint" />
          </mxGeometry>
        </mxCell>
        <mxCell id="A4y-H2rQIWdmtSI4aFEW-12" value="f(" style="text;html=1;strokeColor=none;fillColor=none;align=right;verticalAlign=middle;whiteSpace=wrap;rounded=0;" vertex="1" parent="1">
          <mxGeometry x="510" y="170" width="10" height="30" as="geometry" />
        </mxCell>
        <mxCell id="A4y-H2rQIWdmtSI4aFEW-13" value=")" style="text;html=1;strokeColor=none;fillColor=none;align=left;verticalAlign=middle;whiteSpace=wrap;rounded=0;" vertex="1" parent="1">
          <mxGeometry x="540" y="200" width="60" height="30" as="geometry" />
        </mxCell>
        <mxCell id="A4y-H2rQIWdmtSI4aFEW-14" value="" style="rounded=0;whiteSpace=wrap;html=1;" vertex="1" parent="1">
          <mxGeometry x="505" y="205" width="105" height="40" as="geometry" />
        </mxCell>
        <mxCell id="A4y-H2rQIWdmtSI4aFEW-15" value="" style="rounded=0;whiteSpace=wrap;html=1;fillColor=#FFB366;" vertex="1" parent="1">
          <mxGeometry x="520" y="215" width="30" height="20" as="geometry" />
        </mxCell>
        <mxCell id="A4y-H2rQIWdmtSI4aFEW-16" value=") = True" style="text;html=1;strokeColor=none;fillColor=none;align=left;verticalAlign=middle;whiteSpace=wrap;rounded=0;" vertex="1" parent="1">
          <mxGeometry x="550" y="170" width="50" height="30" as="geometry" />
        </mxCell>
        <mxCell id="A4y-H2rQIWdmtSI4aFEW-17" value="" style="rounded=0;whiteSpace=wrap;html=1;" vertex="1" parent="1">
          <mxGeometry x="505" y="245" width="105" height="40" as="geometry" />
        </mxCell>
        <mxCell id="A4y-H2rQIWdmtSI4aFEW-18" value="" style="rounded=0;whiteSpace=wrap;html=1;fillColor=#FF8000;" vertex="1" parent="1">
          <mxGeometry x="520" y="255" width="30" height="20" as="geometry" />
        </mxCell>
        <mxCell id="A4y-H2rQIWdmtSI4aFEW-19" value=") = True" style="text;html=1;strokeColor=none;fillColor=none;align=left;verticalAlign=middle;whiteSpace=wrap;rounded=0;" vertex="1" parent="1">
          <mxGeometry x="550" y="250" width="50" height="30" as="geometry" />
        </mxCell>
        <mxCell id="A4y-H2rQIWdmtSI4aFEW-20" value="" style="rounded=0;whiteSpace=wrap;html=1;" vertex="1" parent="1">
          <mxGeometry x="505" y="285" width="105" height="40" as="geometry" />
        </mxCell>
        <mxCell id="A4y-H2rQIWdmtSI4aFEW-21" value="" style="rounded=0;whiteSpace=wrap;html=1;fillColor=#994C00;" vertex="1" parent="1">
          <mxGeometry x="520" y="295" width="30" height="20" as="geometry" />
        </mxCell>
        <mxCell id="A4y-H2rQIWdmtSI4aFEW-22" value=") = False" style="text;html=1;strokeColor=none;fillColor=none;align=left;verticalAlign=middle;whiteSpace=wrap;rounded=0;" vertex="1" parent="1">
          <mxGeometry x="550" y="290" width="50" height="30" as="geometry" />
        </mxCell>
        <mxCell id="A4y-H2rQIWdmtSI4aFEW-23" value=") = False" style="text;html=1;strokeColor=none;fillColor=none;align=left;verticalAlign=middle;whiteSpace=wrap;rounded=0;" vertex="1" parent="1">
          <mxGeometry x="550" y="210" width="50" height="30" as="geometry" />
        </mxCell>
        <mxCell id="A4y-H2rQIWdmtSI4aFEW-24" value="f(" style="text;html=1;strokeColor=none;fillColor=none;align=right;verticalAlign=middle;whiteSpace=wrap;rounded=0;" vertex="1" parent="1">
          <mxGeometry x="510" y="210" width="10" height="30" as="geometry" />
        </mxCell>
        <mxCell id="A4y-H2rQIWdmtSI4aFEW-25" value="f(" style="text;html=1;strokeColor=none;fillColor=none;align=right;verticalAlign=middle;whiteSpace=wrap;rounded=0;" vertex="1" parent="1">
          <mxGeometry x="510" y="250" width="10" height="30" as="geometry" />
        </mxCell>
        <mxCell id="A4y-H2rQIWdmtSI4aFEW-26" value="f(" style="text;html=1;strokeColor=none;fillColor=none;align=right;verticalAlign=middle;whiteSpace=wrap;rounded=0;" vertex="1" parent="1">
          <mxGeometry x="510" y="290" width="10" height="30" as="geometry" />
        </mxCell>
        <mxCell id="A4y-H2rQIWdmtSI4aFEW-27" value="" style="shape=flexArrow;endArrow=classic;html=1;rounded=0;exitX=0;exitY=0.5;exitDx=0;exitDy=0;" edge="1" parent="1">
          <mxGeometry width="50" height="50" relative="1" as="geometry">
            <mxPoint x="620" y="239.58" as="sourcePoint" />
            <mxPoint x="670" y="239.58" as="targetPoint" />
          </mxGeometry>
        </mxCell>
        <mxCell id="A4y-H2rQIWdmtSI4aFEW-33" value="" style="rounded=0;whiteSpace=wrap;html=1;fillColor=#FFE6CC;" vertex="1" parent="1">
          <mxGeometry x="680" y="220" width="30" height="20" as="geometry" />
        </mxCell>
        <mxCell id="A4y-H2rQIWdmtSI4aFEW-35" value="" style="rounded=0;whiteSpace=wrap;html=1;fillColor=#FF8000;" vertex="1" parent="1">
          <mxGeometry x="680" y="240" width="30" height="20" as="geometry" />
        </mxCell>
      </root>
    </mxGraphModel>
  </diagram>
</mxfile>
